# xmcd
#
# Track frame offsets: 
#        150
#        11937
#        23230
#        35587
#        45667
#        57437
#        73025
#        92515
#        105885
#        118025
#        138125
#
# Disc length: 2048 seconds
#
# Revision: 1
# Processed by: cddbd v1.5.2PL0 Copyright (c) Steve Scherf et al.
# Submitted via: ExactAudioCopy v0.99pb5
#
DISCID=8d07fe0b
DTITLE=The Soul Stirrers - Tribute To Sam Cooke
DYEAR=2001
DGENRE=Blues
TTITLE0=My Loved Ones
TTITLE1=Striving
TTITLE2=Hello Sunshine
TTITLE3=That's Heaven To Me
TTITLE4=Farther Along
TTITLE5=Slow Train
TTITLE6=Don't Move That Mountain
TTITLE7=God Is Standing By
TTITLE8=Peace In The Valley
TTITLE9=The Son
TTITLE10=Heaven Is My Home
EXTD=
EXTT0=
EXTT1=
EXTT2=
EXTT3=
EXTT4=
EXTT5=
EXTT6=
EXTT7=
EXTT8=
EXTT9=
EXTT10=
PLAYORDER=
